HIERARCHY
ROOT pelvis
{
	OFFSET 0.003123 -0.351407 0.012037
	CHANNELS 6 Xposition Yposition Zposition Zrotation Yrotation Xrotation 
	JOINT left_hip
	{
		OFFSET 0.058189 -0.092763 -0.026001
		CHANNELS 3 Zrotation Yrotation Xrotation
		JOINT left_knee
		{
			OFFSET 0.054695 -0.378753 -0.009396
			CHANNELS 3 Zrotation Yrotation Xrotation
			JOINT left_ankle
			{
				OFFSET -0.043453 -0.403059 -0.031876
				CHANNELS 3 Zrotation Yrotation Xrotation
				JOINT left_foot
				{
					OFFSET 0.047257 -0.057997 0.118216
					CHANNELS 3 Zrotation Yrotation Xrotation
					End Site
					{
						OFFSET 0.000000 0.000000 0.000000
					}
				}
			}
		}
	}
	JOINT right_hip
	{
		OFFSET -0.063267 -0.103908 -0.021250
		CHANNELS 3 Zrotation Yrotation Xrotation
		JOINT right_knee
		{
			OFFSET -0.044210 -0.362380 -0.016824
			CHANNELS 3 Zrotation Yrotation Xrotation
			JOINT right_ankle
			{
				OFFSET 0.015417 -0.410728 -0.020192
				CHANNELS 3 Zrotation Yrotation Xrotation
				JOINT right_foot
				{
					OFFSET -0.038812 -0.058328 0.119049
					CHANNELS 3 Zrotation Yrotation Xrotation
					End Site
					{
						OFFSET 0.000000 0.000000 0.000000
					}
				}
			}
		}
	}
	JOINT spine_1
	{
		OFFSET -0.002763 0.109891 -0.027618
		CHANNELS 3 Zrotation Yrotation Xrotation
		JOINT spine_2
		{
			OFFSET 0.009448 0.131853 -0.005940
			CHANNELS 3 Zrotation Yrotation Xrotation
			JOINT spine_3
			{
				OFFSET -0.011330 0.052235 0.028447
				CHANNELS 3 Zrotation Yrotation Xrotation
				JOINT neck
				{
					OFFSET -0.012164 0.165167 -0.031615
					CHANNELS 3 Zrotation Yrotation Xrotation
					JOINT head
					{
						OFFSET 0.024783 0.160452 0.020737
						CHANNELS 3 Zrotation Yrotation Xrotation
						End Site
						{
							OFFSET 0.000000 0.000000 0.000000
						}
					}
				}
				JOINT left_collar
				{
					OFFSET 0.046364 0.084944 -0.007220
					CHANNELS 3 Zrotation Yrotation Xrotation
					JOINT left_shoulder
					{
						OFFSET 0.119239 0.057728 -0.015461
						CHANNELS 3 Zrotation Yrotation Xrotation
						JOINT left_elbow
						{
							OFFSET 0.254123 -0.072151 -0.042459
							CHANNELS 3 Zrotation Yrotation Xrotation
							JOINT left_wrist
							{
								OFFSET 0.251987 0.023221 -0.002472
								CHANNELS 3 Zrotation Yrotation Xrotation
								JOINT left_index_1
								{
									OFFSET 0.101902 -0.008688 0.019351
									CHANNELS 3 Zrotation Yrotation Xrotation
									JOINT left_index_2
									{
										OFFSET 0.030149 -0.011154 0.001151
										CHANNELS 3 Zrotation Yrotation Xrotation
										JOINT left_index_3
										{
											OFFSET 0.006504 -0.021577 -0.002433
											CHANNELS 3 Zrotation Yrotation Xrotation
											End Site
											{
												OFFSET 0.000000 0.000000 0.000000
											}
										}
									}
								}
								JOINT left_middle_1
								{
									OFFSET 0.109398 -0.006328 -0.003981
									CHANNELS 3 Zrotation Yrotation Xrotation
									JOINT left_middle_2
									{
										OFFSET 0.026472 -0.015218 -0.004641
										CHANNELS 3 Zrotation Yrotation Xrotation
										JOINT left_middle_3
										{
											OFFSET 0.005022 -0.023347 -0.001911
											CHANNELS 3 Zrotation Yrotation Xrotation
											End Site
											{
												OFFSET 0.000000 0.000000 0.000000
											}
										}
									}
								}
								JOINT left_pinky_1
								{
									OFFSET 0.084047 -0.014539 -0.043750
									CHANNELS 3 Zrotation Yrotation Xrotation
									JOINT left_pinky_2
									{
										OFFSET 0.012124 -0.014448 -0.005375
										CHANNELS 3 Zrotation Yrotation Xrotation
										JOINT left_pinky_3
										{
											OFFSET 0.003798 -0.018853 0.000167
											CHANNELS 3 Zrotation Yrotation Xrotation
											End Site
											{
												OFFSET 0.000000 0.000000 0.000000
											}
										}
									}
								}
								JOINT left_ring_1
								{
									OFFSET 0.097444 -0.009268 -0.027345
									CHANNELS 3 Zrotation Yrotation Xrotation
									JOINT left_ring_2
									{
										OFFSET 0.023561 -0.016057 -0.001895
										CHANNELS 3 Zrotation Yrotation Xrotation
										JOINT left_ring_3
										{
											OFFSET 0.004257 -0.023548 0.000814
											CHANNELS 3 Zrotation Yrotation Xrotation
											End Site
											{
												OFFSET 0.000000 0.000000 0.000000
											}
										}
									}
								}
								JOINT left_thumb_1
								{
									OFFSET 0.040636 -0.017977 0.025611
									CHANNELS 3 Zrotation Yrotation Xrotation
									JOINT left_thumb_2
									{
										OFFSET 0.021637 -0.017639 0.011623
										CHANNELS 3 Zrotation Yrotation Xrotation
										JOINT left_thumb_3
										{
											OFFSET 0.024002 -0.008356 0.006548
											CHANNELS 3 Zrotation Yrotation Xrotation
											End Site
											{
												OFFSET 0.000000 0.000000 0.000000
											}
										}
									}
								}
							}
						}
					}
				}
				JOINT right_collar
				{
					OFFSET -0.047695 0.084339 -0.013400
					CHANNELS 3 Zrotation Yrotation Xrotation
					JOINT right_shoulder
					{
						OFFSET -0.102578 0.053524 -0.012669
						CHANNELS 3 Zrotation Yrotation Xrotation
						JOINT right_elbow
						{
							OFFSET -0.271150 -0.036492 -0.026467
							CHANNELS 3 Zrotation Yrotation Xrotation
							JOINT right_wrist
							{
								OFFSET -0.249267 -0.004533 -0.015325
								CHANNELS 3 Zrotation Yrotation Xrotation
								JOINT right_index_1
								{
									OFFSET -0.099881 -0.011783 0.019600
									CHANNELS 3 Zrotation Yrotation Xrotation
									JOINT right_index_2
									{
										OFFSET -0.030148 -0.011154 0.001151
										CHANNELS 3 Zrotation Yrotation Xrotation
										JOINT right_index_3
										{
											OFFSET -0.006505 -0.021577 -0.002432
											CHANNELS 3 Zrotation Yrotation Xrotation
											End Site
											{
												OFFSET 0.000000 0.000000 0.000000
											}
										}
									}
								}
								JOINT right_middle_1
								{
									OFFSET -0.107376 -0.009422 -0.003734
									CHANNELS 3 Zrotation Yrotation Xrotation
									JOINT right_middle_2
									{
										OFFSET -0.026472 -0.015218 -0.004641
										CHANNELS 3 Zrotation Yrotation Xrotation
										JOINT right_middle_3
										{
											OFFSET -0.005022 -0.023347 -0.001911
											CHANNELS 3 Zrotation Yrotation Xrotation
											End Site
											{
												OFFSET 0.000000 0.000000 0.000000
											}
										}
									}
								}
								JOINT right_pinky_1
								{
									OFFSET -0.082027 -0.017634 -0.043503
									CHANNELS 3 Zrotation Yrotation Xrotation
									JOINT right_pinky_2
									{
										OFFSET -0.012123 -0.014448 -0.005374
										CHANNELS 3 Zrotation Yrotation Xrotation
										JOINT right_pinky_3
										{
											OFFSET -0.003798 -0.018852 0.000167
											CHANNELS 3 Zrotation Yrotation Xrotation
											End Site
											{
												OFFSET 0.000000 0.000000 0.000000
											}
										}
									}
								}
								JOINT right_ring_1
								{
									OFFSET -0.095423 -0.012362 -0.027099
									CHANNELS 3 Zrotation Yrotation Xrotation
									JOINT right_ring_2
									{
										OFFSET -0.023561 -0.016057 -0.001895
										CHANNELS 3 Zrotation Yrotation Xrotation
										JOINT right_ring_3
										{
											OFFSET -0.004257 -0.023548 0.000816
											CHANNELS 3 Zrotation Yrotation Xrotation
											End Site
											{
												OFFSET 0.000000 0.000000 0.000000
											}
										}
									}
								}
								JOINT right_thumb_1
								{
									OFFSET -0.038613 -0.021074 0.025861
									CHANNELS 3 Zrotation Yrotation Xrotation
									JOINT right_thumb_2
									{
										OFFSET -0.021636 -0.017639 0.011623
										CHANNELS 3 Zrotation Yrotation Xrotation
										JOINT right_thumb_3
										{
											OFFSET -0.024004 -0.008353 0.006547
											CHANNELS 3 Zrotation Yrotation Xrotation
											End Site
											{
												OFFSET 0.000000 0.000000 0.000000
											}
										}
									}
								}
							}
						}
					}
				}
			}
		}
	}
}
MOTION
Frames: 5
Frame Time: 0.050000
0.035125 0.858582 -0.050888 5.063177 7.579151 -10.959760 21.766475 -0.485450 -6.710814 -8.077590 -2.157220 37.855469 1.505160 1.249800 -2.025957 0.000000 0.000000 0.000000 -31.771879 -0.329706 0.382657 15.420833 -3.975935 25.653600 -5.789878 -5.917926 -12.024581 0.000000 0.000000 0.000000 -4.899360 -0.560284 10.750988 -3.601510 1.248147 -3.716271 6.542355 2.954467 16.359689 1.268541 -0.326697 0.868251 0.000000 0.000000 0.000000 8.437858 -9.961861 5.218601 -47.246409 -36.474518 -4.879300 143.034967 -48.225436 -90.345382 12.627527 0.156677 -14.740454 8.913494 2.792800 0.875455 53.914023 -3.709693 -12.234731 0.000000 0.000000 0.000000 15.046425 -11.818568 -6.100212 48.348754 -3.520920 -2.263317 0.000000 0.000000 0.000000 37.277870 -20.173202 -26.939728 28.740614 -0.322746 11.642547 0.000000 0.000000 0.000000 17.975886 -12.363864 -10.042709 46.357768 1.545613 -0.463996 0.000000 0.000000 0.000000 41.177288 23.574963 9.157155 -18.883819 -12.208212 2.742074 0.000000 0.000000 0.000000 -8.879921 7.367232 3.534456 48.727622 41.924471 9.994012 -130.486951 37.011851 -62.185745 -8.353527 0.559984 -29.137145 -7.927911 -0.292430 -0.059768 -48.177734 2.983271 -15.292522 0.000000 0.000000 0.000000 -9.699340 14.645009 -7.981440 -43.758019 2.422533 -5.189016 0.000000 0.000000 0.000000 -25.797551 18.901137 -25.509269 -26.669059 -0.101393 8.176526 0.000000 0.000000 0.000000 -9.569062 14.034462 -10.484250 -42.820805 -2.260381 -4.133042 0.000000 0.000000 0.000000 -38.538389 -21.504867 6.209239 20.873513 12.014822 3.541875 0.000000 0.000000 0.000000 
0.037951 0.886625 -0.027130 8.183340 9.601367 -9.929469 12.923917 -1.024616 -12.294483 -6.261661 -3.515571 40.414207 0.600657 2.845479 1.987400 0.000000 0.000000 0.000000 -27.147799 -0.955293 -3.622746 4.466219 -1.122116 32.830555 -7.167853 -14.149466 0.375500 0.000000 0.000000 0.000000 -12.164924 -0.409565 13.113654 -5.059155 0.354896 -11.018468 11.078479 6.176367 20.603854 2.240746 -0.093171 -1.130380 0.000000 0.000000 0.000000 14.769102 -12.023402 6.593137 -52.430846 -49.530039 -3.799123 144.900549 -51.460937 -97.137541 9.174176 3.296818 -18.040414 5.693477 3.581861 1.174918 46.227446 -2.603355 -18.651692 0.000000 0.000000 0.000000 6.748911 -11.895874 -6.500818 43.485954 -1.773944 -9.482514 0.000000 0.000000 0.000000 31.410519 -21.011908 -30.488186 25.618732 0.220364 8.107781 0.000000 0.000000 0.000000 11.217768 -14.009757 -10.934914 40.137190 2.607768 -6.378028 0.000000 0.000000 0.000000 36.222535 20.703416 4.478749 -20.980422 -11.307028 3.656997 0.000000 0.000000 0.000000 -7.650503 11.277254 4.929869 51.020450 40.817840 11.718286 -130.708482 33.684742 -53.160058 -7.013801 4.237268 -48.973744 -0.935432 2.004246 -0.338019 -29.827995 4.194620 -23.451849 0.000000 0.000000 0.000000 1.362306 16.907058 -8.100462 -23.905821 1.893769 -19.053353 0.000000 0.000000 0.000000 -12.496190 17.479988 -24.760137 -20.326794 0.023506 0.879578 0.000000 0.000000 0.000000 2.833925 15.371009 -8.966768 -30.232894 -1.637502 -15.609578 0.000000 0.000000 0.000000 -44.598555 -20.812441 3.953686 27.671853 14.333665 6.137292 0.000000 0.000000 0.000000 
0.033240 0.886303 -0.019211 7.188874 4.896765 -5.131060 13.664566 -0.980546 -15.431133 -10.114080 -0.862510 38.131378 5.236304 11.426503 2.222140 0.000000 0.000000 0.000000 -23.928989 -0.704568 -10.597099 2.462359 -0.027461 33.164656 -6.958187 -13.393892 -0.637661 0.000000 0.000000 0.000000 -6.988404 -0.508392 16.855074 -4.562252 -0.694832 -13.581431 4.727047 3.132296 18.279436 3.466759 -0.015567 -2.874141 0.000000 0.000000 0.000000 12.639693 -15.074258 7.118326 -50.833431 -48.621367 -2.096467 142.725240 -47.578016 -88.342383 8.922403 1.279819 -16.418912 0.760757 4.254043 1.399119 36.694962 -2.425299 -16.739052 0.000000 0.000000 0.000000 1.012070 -11.948539 -6.610710 32.277876 -1.111846 -10.425423 0.000000 0.000000 0.000000 35.320667 -21.639079 -34.145571 21.712754 0.696402 10.787416 0.000000 0.000000 0.000000 9.877113 -16.236529 -12.663041 31.913358 2.233915 -6.818873 0.000000 0.000000 0.000000 31.146924 20.240868 5.088742 -25.134430 -10.401870 5.385164 0.000000 0.000000 0.000000 -13.439260 13.971798 5.906912 56.110964 46.956702 15.143104 -135.397142 34.401787 -62.393386 -2.878284 9.120472 -47.537211 18.618605 4.419687 1.693305 22.368800 11.336404 -19.526731 0.000000 0.000000 0.000000 20.638010 13.322278 -4.823170 3.913768 10.174035 -26.165324 0.000000 0.000000 0.000000 -11.886373 8.754958 -14.922196 -12.321835 5.182609 -16.017068 0.000000 0.000000 0.000000 10.080092 9.143900 -4.618850 -7.985900 9.520190 -28.391632 0.000000 0.000000 0.000000 -28.981780 -17.030938 -2.875200 29.720504 4.150323 7.600773 0.000000 0.000000 0.000000 
0.038187 0.881629 -0.045609 4.805160 1.855341 -0.066765 18.613248 -0.393804 -14.334643 -12.730612 0.863612 30.342930 6.281996 9.461323 -4.705703 0.000000 0.000000 0.000000 -22.981833 -0.378539 -14.148593 4.267252 -0.344193 24.510591 -6.289188 -11.680866 -1.863159 0.000000 0.000000 0.000000 -1.515579 -0.812481 13.763706 -3.930150 -0.970608 -13.012200 2.360931 1.342124 18.253756 5.019283 -0.847097 -0.015935 0.000000 0.000000 0.000000 5.689393 -10.479010 5.179301 -54.019577 -40.998686 -1.575478 149.921117 -48.238064 -98.532791 4.968902 -0.058620 -16.876159 1.346209 1.924927 0.604792 32.953587 -2.290039 -10.397476 0.000000 0.000000 0.000000 3.269902 -10.800561 -5.998510 32.016294 -1.306477 -7.263988 0.000000 0.000000 0.000000 30.412265 -19.225604 -28.008406 21.390245 0.494635 5.490780 0.000000 0.000000 0.000000 9.486792 -13.357460 -10.418853 29.455274 2.091214 -8.211395 0.000000 0.000000 0.000000 27.521088 20.396925 6.747646 -24.493289 -10.253603 5.099335 0.000000 0.000000 0.000000 -12.594272 14.455498 6.604163 52.642750 46.905858 12.274082 -136.261820 40.487983 -76.701518 -4.286744 9.683707 -26.680867 20.045038 10.125110 1.271787 24.363032 13.103926 -33.293801 0.000000 0.000000 0.000000 29.513802 22.536825 -7.499110 -4.254309 6.157180 -33.228066 0.000000 0.000000 0.000000 -7.987404 17.742559 -30.126757 13.027439 13.813718 -24.796178 0.000000 0.000000 0.000000 19.335642 20.271234 -9.886417 -3.299834 9.779375 -31.928114 0.000000 0.000000 0.000000 -13.739257 -9.220323 -2.345522 13.580366 -0.732010 3.281202 0.000000 0.000000 0.000000 
0.047374 0.866318 -0.045609 2.859098 -1.004336 -0.976870 22.046202 0.150839 -11.730345 -14.615229 1.783758 25.493390 7.473952 13.055401 -2.857330 0.000000 0.000000 0.000000 -24.518853 0.032681 -12.210178 8.897359 -1.177264 19.164118 -6.436510 -11.364018 -3.077557 0.000000 0.000000 0.000000 0.340424 -1.364644 19.161958 -4.999075 -0.824421 -13.612588 4.515142 0.294244 18.209202 0.953248 0.307570 -2.991099 0.000000 0.000000 0.000000 6.701697 -8.821503 4.341710 -57.485963 -37.683246 -0.758231 152.580175 -49.997313 -104.254424 5.035151 -1.383469 -15.005018 1.866828 1.421718 0.421225 36.701744 -2.653093 -9.244823 0.000000 0.000000 0.000000 4.829739 -10.347251 -5.675300 29.782089 -1.478372 -1.899756 0.000000 0.000000 0.000000 29.116097 -18.890882 -26.920836 16.404175 0.911019 7.565992 0.000000 0.000000 0.000000 10.409044 -11.897283 -9.293235 28.484933 1.788060 -3.690319 0.000000 0.000000 0.000000 28.241890 18.630242 3.865235 -22.161215 -11.487950 3.914272 0.000000 0.000000 0.000000 -11.144696 8.641499 4.569035 57.253440 45.565933 12.168562 -145.241248 44.143826 -98.753249 -0.097461 6.716125 -13.588962 10.677842 7.550211 -1.049519 -8.903454 3.889052 -18.457882 0.000000 0.000000 0.000000 10.366919 14.741535 -8.185008 -8.131345 3.629930 -21.089058 0.000000 0.000000 0.000000 -20.441124 14.634727 -19.594069 5.487378 4.966855 -14.601235 0.000000 0.000000 0.000000 3.270781 13.059003 -8.905624 -5.473841 3.595070 -21.043940 0.000000 0.000000 0.000000 -17.079489 -11.634218 0.356798 19.166688 4.995681 3.772539 0.000000 0.000000 0.000000 
